<svg width="64" height="64" viewBox="0 0 64 64" fill="none" xmlns="http://www.w3.org/2000/svg">
<rect width="64" height="64" fill="black"/>
<mask id="mask0_261_4219" style="mask-type:alpha" maskUnits="userSpaceOnUse" x="14" y="9" width="36" height="46">
<path d="M49.5 9.5V18.2821H37.511V54.5H26.4889V18.2821H14.5V9.5H49.5Z" fill="white"/>
</mask>
<g mask="url(#mask0_261_4219)">
<path d="M49.5 9.5V18.2821H37.511V54.5H26.4889V18.2821H14.5V9.5H49.5Z" fill="white"/>
<path d="M19.5709 18.6026C19.5709 15.8824 18.5092 13.2737 16.6195 11.3502C14.7297 9.42677 12.1666 8.34619 9.49401 8.34619C6.82145 8.34619 4.25835 9.42677 2.36857 11.3502C0.478784 13.2737 -0.582886 15.8824 -0.582886 18.6026H19.5709Z" fill="#BE9FF6"/>
<path d="M42.6031 31.423C39.8679 31.423 37.2447 32.4788 35.3107 34.3582C33.3766 36.2376 32.29 38.7867 32.29 41.4445C32.29 44.1024 33.3766 46.6514 35.3107 48.5308C37.2447 50.4102 39.8679 51.4661 42.6031 51.4661V31.423Z" fill="#BE9FF6"/>
<path d="M37.2965 54.5C37.2965 52.6063 36.5574 50.7902 35.2418 49.4512C33.9262 48.1121 32.1419 47.3599 30.2813 47.3599C28.4208 47.3599 26.6364 48.1121 25.3208 49.4512C24.0052 50.7902 23.2661 52.6063 23.2661 54.5H37.2965Z" fill="#C8FEC7"/>
<path d="M26.1667 47.7692C27.4488 47.7692 28.6784 47.2627 29.585 46.3611C30.4916 45.4594 31.0009 44.2366 31.0009 42.9615C31.0009 41.6864 30.4916 40.4636 29.585 39.5619C28.6784 38.6603 27.4488 38.1538 26.1667 38.1538V47.7692Z" fill="#BE9FF6"/>
<path d="M37.3786 12.1922C35.4307 12.1922 33.5626 12.9442 32.1852 14.2826C30.8079 15.621 30.0341 17.4363 30.0341 19.3291C30.0341 21.222 30.8079 23.0373 32.1852 24.3757C33.5626 25.7141 35.4307 26.4661 37.3786 26.4661V12.1922Z" fill="#BE9FF6"/>
<path d="M28.3547 23.7308C26.4068 23.7308 24.5387 24.4827 23.1613 25.8212C21.7839 27.1596 21.0101 28.9749 21.0101 30.8677C21.0101 32.7606 21.7839 34.5759 23.1613 35.9143C24.5387 37.2527 26.4068 38.0046 28.3547 38.0046V23.7308Z" fill="#AEDCFE"/>
<path d="M24.5552 15.0769C23.3586 15.0769 22.211 15.5327 21.3648 16.3442C20.5186 17.1556 20.0433 18.2562 20.0433 19.4038C20.0433 20.5514 20.5186 21.6519 21.3648 22.4634C22.211 23.2748 23.3586 23.7307 24.5552 23.7307V15.0769Z" fill="#C8FEC7"/>
<path d="M37.3786 26.4662C39.3265 26.4662 41.1946 25.7143 42.572 24.3759C43.9493 23.0374 44.7231 21.2221 44.7231 19.3293C44.7231 17.4365 43.9493 15.6212 42.572 14.2827C41.1946 12.9443 39.3265 12.1924 37.3786 12.1924V26.4662Z" fill="#BE9FF6"/>
<path d="M28.3547 38.0045C30.3026 38.0045 32.1707 37.2526 33.5481 35.9142C34.9254 34.5758 35.6992 32.7605 35.6992 30.8676C35.6992 28.9748 34.9254 27.1595 33.5481 25.8211C32.1707 24.4826 30.3026 23.7307 28.3547 23.7307V38.0045Z" fill="#AEDCFE"/>
<path d="M24.5552 23.7307C25.7519 23.7307 26.8995 23.2749 27.7457 22.4634C28.5918 21.652 29.0672 20.5514 29.0672 19.4038C29.0672 18.2563 28.5918 17.1557 27.7457 16.3442C26.8995 15.5328 25.7519 15.0769 24.5552 15.0769V23.7307Z" fill="#C8FEC7"/>
<path d="M40.9917 8.34615C40.9917 10.4341 41.8066 12.4365 43.2572 13.9129C44.7077 15.3893 46.6751 16.2188 48.7265 16.2188C50.7779 16.2188 52.7453 15.3893 54.1958 13.9129C55.6464 12.4365 56.4613 10.4341 56.4613 8.34615L40.9917 8.34615Z" fill="#C8FEC7"/>
<path d="M20.0433 7.06393C20.0433 9.15187 20.8582 11.1543 22.3087 12.6307C23.7593 14.1071 25.7267 14.9365 27.7781 14.9365C29.8295 14.9365 31.7968 14.1071 33.2474 12.6307C34.698 11.1543 35.5129 9.15187 35.5129 7.06393L20.0433 7.06393Z" fill="#AEDCFE"/>
</g>
</svg>
