<svg width="16" height="16" viewBox="0 0 16 16" fill="none" xmlns="http://www.w3.org/2000/svg">
<g clip-path="url(#clip0_106_279)">
<rect width="16" height="16" fill="white"/>
<rect width="16" height="16" fill="black"/>
<path d="M-11.6875 8.75C-11.6875 10.9215 -10.8446 13.004 -9.34435 14.5394C-7.84406 16.0749 -5.80923 16.9375 -3.6875 16.9375C-1.56577 16.9375 0.469063 16.0749 1.96935 14.5394C3.46965 13.004 4.3125 10.9215 4.3125 8.75L-11.6875 8.75Z" fill="#BE9FF6"/>
<path d="M10.4375 -2.3125C10.4375 -0.14104 11.2804 1.94148 12.7806 3.47694C14.2809 5.01239 16.3158 5.875 18.4375 5.875C20.5592 5.875 22.5941 5.01239 24.0944 3.47694C25.5946 1.94148 26.4375 -0.14104 26.4375 -2.3125L10.4375 -2.3125Z" fill="#AEDCFE"/>
<path d="M11.4 3.975V5.6875H9.075V12.75H6.9375V5.6875H4.6125V3.975H11.4Z" fill="white"/>
</g>
<defs>
<clipPath id="clip0_106_279">
<rect width="16" height="16" fill="white"/>
</clipPath>
</defs>
</svg>
