<svg width="20" height="20" viewBox="0 0 20 20" fill="none" xmlns="http://www.w3.org/2000/svg">
<path d="M14.512 17.2959C13.808 17.5039 12.976 17.6 12 17.6H7.19999C6.22399 17.6 5.39199 17.5039 4.68799 17.2959C4.86399 15.2159 6.99999 13.5759 9.59999 13.5759C12.2 13.5759 14.336 15.2159 14.512 17.2959Z" stroke="#292D32" stroke-width="1.2" stroke-linecap="round" stroke-linejoin="round"/>
<path d="M12 1.59998H7.19999C3.19999 1.59998 1.59999 3.19998 1.59999 7.19998V12C1.59999 15.024 2.51199 16.68 4.68799 17.296C4.86399 15.216 6.99999 13.576 9.59999 13.576C12.2 13.576 14.336 15.216 14.512 17.296C16.688 16.68 17.6 15.024 17.6 12V7.19998C17.6 3.19998 16 1.59998 12 1.59998ZM9.59999 11.336C8.01599 11.336 6.73599 10.048 6.73599 8.46399C6.73599 6.87999 8.01599 5.59998 9.59999 5.59998C11.184 5.59998 12.464 6.87999 12.464 8.46399C12.464 10.048 11.184 11.336 9.59999 11.336Z" stroke="#292D32" stroke-width="1.2" stroke-linecap="round" stroke-linejoin="round"/>
<path d="M12.464 8.46399C12.464 10.048 11.184 11.336 9.59999 11.336C8.01599 11.336 6.73599 10.048 6.73599 8.46399C6.73599 6.87999 8.01599 5.59998 9.59999 5.59998C11.184 5.59998 12.464 6.87999 12.464 8.46399Z" stroke="#292D32" stroke-width="1.2" stroke-linecap="round" stroke-linejoin="round"/>
</svg>
