<svg width="948" height="163" viewBox="0 0 948 163" fill="none" xmlns="http://www.w3.org/2000/svg">
<path d="M113.4 20.6V48H76.2V161H42V48H4.8V20.6H113.4ZM230.764 49.4V161H196.564V145.8C193.097 150.733 188.364 154.733 182.364 157.8C176.497 160.733 169.964 162.2 162.764 162.2C154.231 162.2 146.697 160.333 140.164 156.6C133.631 152.733 128.564 147.2 124.964 140C121.364 132.8 119.564 124.333 119.564 114.6V49.4H153.564V110C153.564 117.467 155.497 123.267 159.364 127.4C163.231 131.533 168.431 133.6 174.964 133.6C181.631 133.6 186.897 131.533 190.764 127.4C194.631 123.267 196.564 117.467 196.564 110V49.4H230.764ZM307.53 132V161H290.13C277.73 161 268.063 158 261.13 152C254.196 145.867 250.73 135.933 250.73 122.2V77.8H237.13V49.4H250.73V22.2H284.93V49.4H307.33V77.8H284.93V122.6C284.93 125.933 285.73 128.333 287.33 129.8C288.93 131.267 291.596 132 295.33 132H307.53ZM367.38 162.6C356.446 162.6 346.58 160.267 337.78 155.6C329.113 150.933 322.246 144.267 317.18 135.6C312.246 126.933 309.78 116.8 309.78 105.2C309.78 93.7333 312.313 83.6667 317.38 75C322.446 66.2 329.38 59.4667 338.18 54.8C346.98 50.1333 356.846 47.8 367.78 47.8C378.713 47.8 388.58 50.1333 397.38 54.8C406.18 59.4667 413.113 66.2 418.18 75C423.246 83.6667 425.78 93.7333 425.78 105.2C425.78 116.667 423.18 126.8 417.98 135.6C412.913 144.267 405.913 150.933 396.98 155.6C388.18 160.267 378.313 162.6 367.38 162.6ZM367.38 133C373.913 133 379.446 130.6 383.98 125.8C388.646 121 390.98 114.133 390.98 105.2C390.98 96.2667 388.713 89.4 384.18 84.6C379.78 79.8 374.313 77.4 367.78 77.4C361.113 77.4 355.58 79.8 351.18 84.6C346.78 89.2667 344.58 96.1333 344.58 105.2C344.58 114.133 346.713 121 350.98 125.8C355.38 130.6 360.846 133 367.38 133ZM468.123 68C472.123 61.8667 477.123 57.0667 483.123 53.6C489.123 50 495.79 48.2 503.123 48.2V84.4H493.723C485.19 84.4 478.79 86.2667 474.523 90C470.257 93.6 468.123 100 468.123 109.2V161H433.923V49.4H468.123V68ZM526.67 37.8C520.67 37.8 515.737 36.0667 511.87 32.6C508.137 29 506.27 24.6 506.27 19.4C506.27 14.0667 508.137 9.66666 511.87 6.19999C515.737 2.59999 520.67 0.799988 526.67 0.799988C532.537 0.799988 537.337 2.59999 541.07 6.19999C544.937 9.66666 546.87 14.0667 546.87 19.4C546.87 24.6 544.937 29 541.07 32.6C537.337 36.0667 532.537 37.8 526.67 37.8ZM543.67 49.4V161H509.47V49.4H543.67ZM551.655 105C551.655 93.5333 553.788 83.4667 558.055 74.8C562.455 66.1333 568.388 59.4667 575.855 54.8C583.321 50.1333 591.655 47.8 600.855 47.8C608.721 47.8 615.588 49.4 621.455 52.6C627.455 55.8 632.055 60 635.255 65.2V49.4H669.455V161H635.255V145.2C631.921 150.4 627.255 154.6 621.255 157.8C615.388 161 608.521 162.6 600.655 162.6C591.588 162.6 583.321 160.267 575.855 155.6C568.388 150.8 562.455 144.067 558.055 135.4C553.788 126.6 551.655 116.467 551.655 105ZM635.255 105.2C635.255 96.6667 632.855 89.9333 628.055 85C623.388 80.0667 617.655 77.6 610.855 77.6C604.055 77.6 598.255 80.0667 593.455 85C588.788 89.8 586.455 96.4667 586.455 105C586.455 113.533 588.788 120.333 593.455 125.4C598.255 130.333 604.055 132.8 610.855 132.8C617.655 132.8 623.388 130.333 628.055 125.4C632.855 120.467 635.255 113.733 635.255 105.2ZM718.397 13V161H684.197V13H718.397ZM778.581 162.6C768.848 162.6 760.181 160.933 752.581 157.6C744.981 154.267 738.981 149.733 734.581 144C730.181 138.133 727.715 131.6 727.181 124.4H760.981C761.381 128.267 763.181 131.4 766.381 133.8C769.581 136.2 773.515 137.4 778.181 137.4C782.448 137.4 785.715 136.6 787.981 135C790.381 133.267 791.581 131.067 791.581 128.4C791.581 125.2 789.915 122.867 786.581 121.4C783.248 119.8 777.848 118.067 770.381 116.2C762.381 114.333 755.715 112.4 750.381 110.4C745.048 108.267 740.448 105 736.581 100.6C732.715 96.0667 730.781 90 730.781 82.4C730.781 76 732.515 70.2 735.981 65C739.581 59.6667 744.781 55.4667 751.581 52.4C758.515 49.3333 766.715 47.8 776.181 47.8C790.181 47.8 801.181 51.2667 809.181 58.2C817.315 65.1333 821.981 74.3333 823.181 85.8H791.581C791.048 81.9333 789.315 78.8667 786.381 76.6C783.581 74.3333 779.848 73.2 775.181 73.2C771.181 73.2 768.115 74 765.981 75.6C763.848 77.0667 762.781 79.1333 762.781 81.8C762.781 85 764.448 87.4 767.781 89C771.248 90.6 776.581 92.2 783.781 93.8C792.048 95.9333 798.781 98.0667 803.981 100.2C809.181 102.2 813.715 105.533 817.581 110.2C821.581 114.733 823.648 120.867 823.781 128.6C823.781 135.133 821.915 141 818.181 146.2C814.581 151.267 809.315 155.267 802.381 158.2C795.581 161.133 787.648 162.6 778.581 162.6Z" fill="white"/>
<mask id="mask0_247_981" style="mask-type:alpha" maskUnits="userSpaceOnUse" x="4" y="0" width="820" height="163">
<path d="M113.4 20.6V48H76.2V161H42V48H4.8V20.6H113.4ZM230.764 49.4V161H196.564V145.8C193.097 150.733 188.364 154.733 182.364 157.8C176.497 160.733 169.964 162.2 162.764 162.2C154.231 162.2 146.697 160.333 140.164 156.6C133.631 152.733 128.564 147.2 124.964 140C121.364 132.8 119.564 124.333 119.564 114.6V49.4H153.564V110C153.564 117.467 155.497 123.267 159.364 127.4C163.231 131.533 168.431 133.6 174.964 133.6C181.631 133.6 186.897 131.533 190.764 127.4C194.631 123.267 196.564 117.467 196.564 110V49.4H230.764ZM307.53 132V161H290.13C277.73 161 268.063 158 261.13 152C254.196 145.867 250.73 135.933 250.73 122.2V77.8H237.13V49.4H250.73V22.2H284.93V49.4H307.33V77.8H284.93V122.6C284.93 125.933 285.73 128.333 287.33 129.8C288.93 131.267 291.596 132 295.33 132H307.53ZM367.38 162.6C356.446 162.6 346.58 160.267 337.78 155.6C329.113 150.933 322.246 144.267 317.18 135.6C312.246 126.933 309.78 116.8 309.78 105.2C309.78 93.7333 312.313 83.6667 317.38 75C322.446 66.2 329.38 59.4667 338.18 54.8C346.98 50.1333 356.846 47.8 367.78 47.8C378.713 47.8 388.58 50.1333 397.38 54.8C406.18 59.4667 413.113 66.2 418.18 75C423.246 83.6667 425.78 93.7333 425.78 105.2C425.78 116.667 423.18 126.8 417.98 135.6C412.913 144.267 405.913 150.933 396.98 155.6C388.18 160.267 378.313 162.6 367.38 162.6ZM367.38 133C373.913 133 379.446 130.6 383.98 125.8C388.646 121 390.98 114.133 390.98 105.2C390.98 96.2667 388.713 89.4 384.18 84.6C379.78 79.8 374.313 77.4 367.78 77.4C361.113 77.4 355.58 79.8 351.18 84.6C346.78 89.2667 344.58 96.1333 344.58 105.2C344.58 114.133 346.713 121 350.98 125.8C355.38 130.6 360.846 133 367.38 133ZM468.123 68C472.123 61.8667 477.123 57.0667 483.123 53.6C489.123 50 495.79 48.2 503.123 48.2V84.4H493.723C485.19 84.4 478.79 86.2667 474.523 90C470.257 93.6 468.123 100 468.123 109.2V161H433.923V49.4H468.123V68ZM526.67 37.8C520.67 37.8 515.737 36.0667 511.87 32.6C508.137 29 506.27 24.6 506.27 19.4C506.27 14.0667 508.137 9.66666 511.87 6.19999C515.737 2.59999 520.67 0.799988 526.67 0.799988C532.537 0.799988 537.337 2.59999 541.07 6.19999C544.937 9.66666 546.87 14.0667 546.87 19.4C546.87 24.6 544.937 29 541.07 32.6C537.337 36.0667 532.537 37.8 526.67 37.8ZM543.67 49.4V161H509.47V49.4H543.67ZM551.655 105C551.655 93.5333 553.788 83.4667 558.055 74.8C562.455 66.1333 568.388 59.4667 575.855 54.8C583.321 50.1333 591.655 47.8 600.855 47.8C608.721 47.8 615.588 49.4 621.455 52.6C627.455 55.8 632.055 60 635.255 65.2V49.4H669.455V161H635.255V145.2C631.921 150.4 627.255 154.6 621.255 157.8C615.388 161 608.521 162.6 600.655 162.6C591.588 162.6 583.321 160.267 575.855 155.6C568.388 150.8 562.455 144.067 558.055 135.4C553.788 126.6 551.655 116.467 551.655 105ZM635.255 105.2C635.255 96.6667 632.855 89.9333 628.055 85C623.388 80.0667 617.655 77.6 610.855 77.6C604.055 77.6 598.255 80.0667 593.455 85C588.788 89.8 586.455 96.4667 586.455 105C586.455 113.533 588.788 120.333 593.455 125.4C598.255 130.333 604.055 132.8 610.855 132.8C617.655 132.8 623.388 130.333 628.055 125.4C632.855 120.467 635.255 113.733 635.255 105.2ZM718.397 13V161H684.197V13H718.397ZM778.581 162.6C768.848 162.6 760.181 160.933 752.581 157.6C744.981 154.267 738.981 149.733 734.581 144C730.181 138.133 727.715 131.6 727.181 124.4H760.981C761.381 128.267 763.181 131.4 766.381 133.8C769.581 136.2 773.515 137.4 778.181 137.4C782.448 137.4 785.715 136.6 787.981 135C790.381 133.267 791.581 131.067 791.581 128.4C791.581 125.2 789.915 122.867 786.581 121.4C783.248 119.8 777.848 118.067 770.381 116.2C762.381 114.333 755.715 112.4 750.381 110.4C745.048 108.267 740.448 105 736.581 100.6C732.715 96.0667 730.781 90 730.781 82.4C730.781 76 732.515 70.2 735.981 65C739.581 59.6667 744.781 55.4667 751.581 52.4C758.515 49.3333 766.715 47.8 776.181 47.8C790.181 47.8 801.181 51.2667 809.181 58.2C817.315 65.1333 821.981 74.3333 823.181 85.8H791.581C791.048 81.9333 789.315 78.8667 786.381 76.6C783.581 74.3333 779.848 73.2 775.181 73.2C771.181 73.2 768.115 74 765.981 75.6C763.848 77.0667 762.781 79.1333 762.781 81.8C762.781 85 764.448 87.4 767.781 89C771.248 90.6 776.581 92.2 783.781 93.8C792.048 95.9333 798.781 98.0667 803.981 100.2C809.181 102.2 813.715 105.533 817.581 110.2C821.581 114.733 823.648 120.867 823.781 128.6C823.781 135.133 821.915 141 818.181 146.2C814.581 151.267 809.315 155.267 802.381 158.2C795.581 161.133 787.648 162.6 778.581 162.6Z" fill="white"/>
</mask>
<g mask="url(#mask0_247_981)">
<path d="M22 51C22 42.7783 18.8393 34.8933 13.2132 29.0797C7.58711 23.2661 -0.0435042 20 -8 20C-15.9565 20 -23.5871 23.2661 -29.2132 29.0797C-34.8393 34.8933 -38 42.7783 -38 51H22Z" fill="#BE9FF6"/>
<path d="M91 91C82.7783 91 74.8933 94.2134 69.0797 99.9332C63.2661 105.653 60 113.411 60 121.5C60 129.589 63.2661 137.347 69.0797 143.067C74.8933 148.787 82.7783 152 91 152V91Z" fill="#BE9FF6"/>
<path d="M242 86C233.778 86 225.893 89.2134 220.08 94.9332C214.266 100.653 211 108.411 211 116.5C211 124.589 214.266 132.347 220.08 138.067C225.893 143.787 233.778 147 242 147V86Z" fill="#BE9FF6"/>
<path d="M380 74C373.635 74 367.53 76.4759 363.029 80.883C358.529 85.2901 356 91.2674 356 97.5C356 103.733 358.529 109.71 363.029 114.117C367.53 118.524 373.635 121 380 121V74Z" fill="#BE9FF6"/>
<path d="M474 8C464.983 8 456.335 11.5295 449.958 17.8119C443.582 24.0944 440 32.6152 440 41.5C440 50.3848 443.582 58.9056 449.958 65.1881C456.335 71.4705 464.983 75 474 75V8Z" fill="#BE9FF6"/>
<path d="M775 64C767.044 64 759.413 67.0553 753.787 72.4939C748.161 77.9325 745 85.3087 745 93C745 100.691 748.161 108.068 753.787 113.506C759.413 118.945 767.044 122 775 122V64Z" fill="#BE9FF6"/>
<path d="M636 19C626.983 19 618.335 22.5295 611.958 28.8119C605.582 35.0944 602 43.6152 602 52.5C602 61.3848 605.582 69.9056 611.958 76.1881C618.335 82.4705 626.983 86 636 86V19Z" fill="#BE9FF6"/>
<path d="M194 111C191.348 111 188.804 112.106 186.929 114.075C185.054 116.045 184 118.715 184 121.5C184 124.285 185.054 126.955 186.929 128.925C188.804 130.894 191.348 132 194 132V111Z" fill="#BE9FF6"/>
<path d="M274 53C269.757 53 265.687 54.7384 262.686 57.8327C259.686 60.9271 258 65.1239 258 69.5C258 73.8761 259.686 78.0729 262.686 81.1673C265.687 84.2616 269.757 86 274 86V53Z" fill="#BE9FF6"/>
<path d="M443 153C438.757 153 434.687 154.738 431.686 157.833C428.686 160.927 427 165.124 427 169.5C427 173.876 428.686 178.073 431.686 181.167C434.687 184.262 438.757 186 443 186V153Z" fill="#BE9FF6"/>
<path d="M664 129C659.757 129 655.687 130.738 652.686 133.833C649.686 136.927 648 141.124 648 145.5C648 149.876 649.686 154.073 652.686 157.167C655.687 160.262 659.757 162 664 162V129Z" fill="#BE9FF6"/>
<path d="M775 151C770.757 151 766.687 152.738 763.686 155.833C760.686 158.927 759 163.124 759 167.5C759 171.876 760.686 176.073 763.686 179.167C766.687 182.262 770.757 184 775 184V151Z" fill="#BE9FF6"/>
<path d="M714 95C709.757 95 705.687 96.7384 702.686 99.8327C699.686 102.927 698 107.124 698 111.5C698 115.876 699.686 120.073 702.686 123.167C705.687 126.262 709.757 128 714 128V95Z" fill="#BE9FF6"/>
<path d="M509 140C504.757 140 500.687 141.738 497.686 144.833C494.686 147.927 493 152.124 493 156.5C493 160.876 494.686 165.073 497.686 168.167C500.687 171.262 504.757 173 509 173V140Z" fill="#BE9FF6"/>
<path d="M255 17C251.552 17 248.246 18.4223 245.808 20.9541C243.37 23.4858 242 26.9196 242 30.5C242 34.0804 243.37 37.5142 245.808 40.0459C248.246 42.5777 251.552 44 255 44V17Z" fill="#BE9FF6"/>
<path d="M123 111C120.348 111 117.804 112.106 115.929 114.075C114.054 116.045 113 118.715 113 121.5C113 124.285 114.054 126.955 115.929 128.925C117.804 130.894 120.348 132 123 132V111Z" fill="#BE9FF6"/>
<path d="M242 147C250.222 147 258.107 143.787 263.92 138.067C269.734 132.347 273 124.589 273 116.5C273 108.411 269.734 100.653 263.92 94.9332C258.107 89.2134 250.222 86 242 86V147Z" fill="#BE9FF6"/>
<path d="M380 121C386.365 121 392.47 118.524 396.971 114.117C401.471 109.71 404 103.733 404 97.5C404 91.2674 401.471 85.2901 396.971 80.883C392.47 76.4759 386.365 74 380 74V121Z" fill="#BE9FF6"/>
<path d="M474 75C483.017 75 491.665 71.4705 498.042 65.1881C504.418 58.9056 508 50.3848 508 41.5C508 32.6152 504.418 24.0944 498.042 17.8119C491.665 11.5295 483.017 8 474 8V75Z" fill="#BE9FF6"/>
<path d="M775 122C782.691 122 790.068 118.945 795.506 113.506C800.945 108.068 804 100.691 804 93C804 85.3087 800.945 77.9325 795.506 72.4939C790.068 67.0553 782.691 64 775 64V122Z" fill="#BE9FF6"/>
<path d="M636 86C645.017 86 653.665 82.4705 660.042 76.1881C666.418 69.9056 670 61.3848 670 52.5C670 43.6152 666.418 35.0944 660.042 28.8119C653.665 22.5295 645.017 19 636 19V86Z" fill="#BE9FF6"/>
<path d="M194 132C196.917 132 199.715 130.894 201.778 128.925C203.841 126.955 205 124.285 205 121.5C205 118.715 203.841 116.045 201.778 114.075C199.715 112.106 196.917 111 194 111V132Z" fill="#BE9FF6"/>
<path d="M274 86C278.509 86 282.833 84.2616 286.021 81.1673C289.209 78.0729 291 73.8761 291 69.5C291 65.1239 289.209 60.9271 286.021 57.8327C282.833 54.7384 278.509 53 274 53V86Z" fill="#BE9FF6"/>
<path d="M443 186C447.509 186 451.833 184.262 455.021 181.167C458.209 178.073 460 173.876 460 169.5C460 165.124 458.209 160.927 455.021 157.833C451.833 154.738 447.509 153 443 153V186Z" fill="#BE9FF6"/>
<path d="M664 162C668.509 162 672.833 160.262 676.021 157.167C679.209 154.073 681 149.876 681 145.5C681 141.124 679.209 136.927 676.021 133.833C672.833 130.738 668.509 129 664 129V162Z" fill="#BE9FF6"/>
<path d="M775 184C779.509 184 783.833 182.262 787.021 179.167C790.209 176.073 792 171.876 792 167.5C792 163.124 790.209 158.927 787.021 155.833C783.833 152.738 779.509 151 775 151V184Z" fill="#BE9FF6"/>
<path d="M714 128C718.509 128 722.833 126.262 726.021 123.167C729.209 120.073 731 115.876 731 111.5C731 107.124 729.209 102.927 726.021 99.8327C722.833 96.7384 718.509 95 714 95V128Z" fill="#BE9FF6"/>
<path d="M509 173C513.509 173 517.833 171.262 521.021 168.167C524.209 165.073 526 160.876 526 156.5C526 152.124 524.209 147.927 521.021 144.833C517.833 141.738 513.509 140 509 140V173Z" fill="#BE9FF6"/>
<path d="M255 44C258.713 44 262.274 42.5777 264.899 40.0459C267.525 37.5142 269 34.0804 269 30.5C269 26.9196 267.525 23.4858 264.899 20.9541C262.274 18.4223 258.713 17 255 17V44Z" fill="#BE9FF6"/>
<path d="M123 132C125.917 132 128.715 130.894 130.778 128.925C132.841 126.955 134 124.285 134 121.5C134 118.715 132.841 116.045 130.778 114.075C128.715 112.106 125.917 111 123 111V132Z" fill="#BE9FF6"/>
<path d="M163 44C154.778 44 146.893 47.2134 141.08 52.9332C135.266 58.6531 132 66.4109 132 74.5C132 82.5891 135.266 90.3469 141.08 96.0668C146.893 101.787 154.778 105 163 105V44Z" fill="#BE9FF6"/>
<path d="M75 161C75 155.165 72.8402 149.569 68.9957 145.444C65.1512 141.318 59.9369 139 54.5 139C49.0631 139 43.8488 141.318 40.0043 145.444C36.1598 149.569 34 155.165 34 161H75Z" fill="#C8FEC7"/>
<path d="M42 141C45.713 141 49.274 139.42 51.8995 136.607C54.525 133.794 56 129.978 56 126C56 122.022 54.525 118.206 51.8995 115.393C49.274 112.58 45.713 111 42 111V141Z" fill="#BE9FF6"/>
<path d="M194 73C197.713 73 201.274 71.4196 203.899 68.6066C206.525 65.7936 208 61.9782 208 58C208 54.0218 206.525 50.2064 203.899 47.3934C201.274 44.5804 197.713 43 194 43V73Z" fill="#BE9FF6"/>
<path d="M75 31C69.1652 31 63.5695 33.3179 59.4437 37.4437C55.3179 41.5695 53 47.1652 53 53C53 58.8348 55.3179 64.4305 59.4437 68.5563C63.5695 72.6821 69.1652 75 75 75V31Z" fill="#BE9FF6"/>
<path d="M48 67C42.1652 67 36.5695 69.3179 32.4437 73.4437C28.3179 77.5695 26 83.1652 26 89C26 94.8348 28.3179 100.431 32.4437 104.556C36.5695 108.682 42.1652 111 48 111V67Z" fill="#AEDCFE"/>
<path d="M199 74C194.226 74 189.648 75.8964 186.272 79.2721C182.896 82.6477 181 87.2261 181 92C181 96.7739 182.896 101.352 186.272 104.728C189.648 108.104 194.226 110 199 110V74Z" fill="#C8FEC7"/>
<path d="M421.5 42C415.267 42 409.29 44.4759 404.883 48.883C400.476 53.2901 398 59.2674 398 65.5C398 71.7326 400.476 77.7099 404.883 82.117C409.29 86.5241 415.267 89 421.5 89V42Z" fill="#C8FEC7"/>
<path d="M526.5 95C520.267 95 514.29 97.4759 509.883 101.883C505.476 106.29 503 112.267 503 118.5C503 124.733 505.476 130.71 509.883 135.117C514.29 139.524 520.267 142 526.5 142V95Z" fill="#C8FEC7"/>
<path d="M545.5 14C539.267 14 533.29 16.4759 528.883 20.883C524.476 25.2901 522 31.2674 522 37.5C522 43.7326 524.476 49.7099 528.883 54.117C533.29 58.5241 539.267 61 545.5 61V14Z" fill="#C8FEC7"/>
<path d="M623.5 125C617.267 125 611.29 127.476 606.883 131.883C602.476 136.29 600 142.267 600 148.5C600 154.733 602.476 160.71 606.883 165.117C611.29 169.524 617.267 172 623.5 172V125Z" fill="#C8FEC7"/>
<path d="M590.5 69C584.267 69 578.29 71.4759 573.883 75.883C569.476 80.2901 567 86.2674 567 92.5C567 98.7326 569.476 104.71 573.883 109.117C578.29 113.524 584.267 116 590.5 116V69Z" fill="#C8FEC7"/>
<path d="M688.5 55C682.267 55 676.29 57.4759 671.883 61.883C667.476 66.2901 665 72.2674 665 78.5C665 84.7326 667.476 90.7099 671.883 95.117C676.29 99.5241 682.267 102 688.5 102V55Z" fill="#C8FEC7"/>
<path d="M824.5 47C818.267 47 812.29 49.4759 807.883 53.883C803.476 58.2901 801 64.2674 801 70.5C801 76.7326 803.476 82.7099 807.883 87.117C812.29 91.5241 818.267 94 824.5 94V47Z" fill="#C8FEC7"/>
<path d="M701.5 -8C695.267 -8 689.29 -5.52411 684.883 -1.11701C680.476 3.2901 678 9.26741 678 15.5C678 21.7326 680.476 27.7099 684.883 32.117C689.29 36.5241 695.267 39 701.5 39V-8Z" fill="#C8FEC7"/>
<path d="M744.5 115C738.267 115 732.29 117.476 727.883 121.883C723.476 126.29 721 132.267 721 138.5C721 144.733 723.476 150.71 727.883 155.117C732.29 159.524 738.267 162 744.5 162V115Z" fill="#C8FEC7"/>
<path d="M293 82C287.696 82 282.609 84.1071 278.858 87.8579C275.107 91.6086 273 96.6957 273 102C273 107.304 275.107 112.391 278.858 116.142C282.609 119.893 287.696 122 293 122V82Z" fill="#C8FEC7"/>
<path d="M233 40C227.165 40 221.569 42.3179 217.444 46.4437C213.318 50.5695 211 56.1652 211 62C211 67.8348 213.318 73.4305 217.444 77.5563C221.569 81.6821 227.165 84 233 84V40Z" fill="#AEDCFE"/>
<path d="M159 110C152.37 110 146.011 112.634 141.322 117.322C136.634 122.011 134 128.37 134 135C134 141.63 136.634 147.989 141.322 152.678C146.011 157.366 152.37 160 159 160V110Z" fill="#AEDCFE"/>
<path d="M293 125C286.37 125 280.011 127.634 275.322 132.322C270.634 137.011 268 143.37 268 150C268 156.63 270.634 162.989 275.322 167.678C280.011 172.366 286.37 175 293 175V125Z" fill="#AEDCFE"/>
<path d="M435 102C428.37 102 422.011 104.634 417.322 109.322C412.634 114.011 410 120.37 410 127C410 133.63 412.634 139.989 417.322 144.678C422.011 149.366 428.37 152 435 152V102Z" fill="#AEDCFE"/>
<path d="M516 -29C509.37 -29 503.011 -26.3661 498.322 -21.6777C493.634 -16.9893 491 -10.6304 491 -4C491 2.63041 493.634 8.98926 498.322 13.6777C503.011 18.3661 509.37 21 516 21V-29Z" fill="#AEDCFE"/>
<path d="M575 19C568.37 19 562.011 21.6339 557.322 26.3223C552.634 31.0107 550 37.3696 550 44C550 50.6304 552.634 56.9893 557.322 61.6777C562.011 66.3661 568.37 69 575 69V19Z" fill="#AEDCFE"/>
<path d="M808 115C801.37 115 795.011 117.634 790.322 122.322C785.634 127.011 783 133.37 783 140C783 146.63 785.634 152.989 790.322 157.678C795.011 162.366 801.37 165 808 165V115Z" fill="#AEDCFE"/>
<path d="M571 118C564.37 118 558.011 120.634 553.322 125.322C548.634 130.011 546 136.37 546 143C546 149.63 548.634 155.989 553.322 160.678C558.011 165.366 564.37 168 571 168V118Z" fill="#AEDCFE"/>
<path d="M480 76C473.37 76 467.011 78.6339 462.322 83.3223C457.634 88.0107 455 94.3696 455 101C455 107.63 457.634 113.989 462.322 118.678C467.011 123.366 473.37 126 480 126V76Z" fill="#AEDCFE"/>
<path d="M514.5 56C510.124 56 505.927 57.7384 502.833 60.8327C499.738 63.9271 498 68.1239 498 72.5C498 76.8761 499.738 81.0729 502.833 84.1673C505.927 87.2616 510.124 89 514.5 89V56Z" fill="#AEDCFE"/>
<path d="M720.5 36C716.124 36 711.927 37.7384 708.833 40.8327C705.738 43.9271 704 48.1239 704 52.5C704 56.8761 705.738 61.0729 708.833 64.1673C711.927 67.2616 716.124 69 720.5 69V36Z" fill="#AEDCFE"/>
<path d="M546.5 142C542.124 142 537.927 143.738 534.833 146.833C531.738 149.927 530 154.124 530 158.5C530 162.876 531.738 167.073 534.833 170.167C537.927 173.262 542.124 175 546.5 175V142Z" fill="#AEDCFE"/>
<path d="M314.5 50C309.063 50 303.849 52.1598 300.004 56.0043C296.16 59.8488 294 65.0631 294 70.5C294 75.9369 296.16 81.1512 300.004 84.9957C303.849 88.8402 309.063 91 314.5 91V50Z" fill="#AEDCFE"/>
<path d="M351 86C346.226 86 341.648 87.8964 338.272 91.2721C334.896 94.6477 333 99.2261 333 104C333 108.774 334.896 113.352 338.272 116.728C341.648 120.104 346.226 122 351 122V86Z" fill="#AEDCFE"/>
<path d="M366 21C359.104 21 352.491 23.7393 347.615 28.6152C342.739 33.4912 340 40.1044 340 47C340 53.8956 342.739 60.5088 347.615 65.3848C352.491 70.2607 359.104 73 366 73V21Z" fill="#AEDCFE"/>
<path d="M652.5 86C647.063 86 641.849 88.1598 638.004 92.0043C634.16 95.8488 632 101.063 632 106.5C632 111.937 634.16 117.151 638.004 120.996C641.849 124.84 647.063 127 652.5 127V86Z" fill="#AEDCFE"/>
<path d="M746.5 30C741.063 30 735.849 32.1598 732.004 36.0043C728.16 39.8488 726 45.0631 726 50.5C726 55.9369 728.16 61.1512 732.004 64.9957C735.849 68.8402 741.063 71 746.5 71V30Z" fill="#AEDCFE"/>
<path d="M701.5 130C696.063 130 690.849 132.16 687.004 136.004C683.16 139.849 681 145.063 681 150.5C681 155.937 683.16 161.151 687.004 164.996C690.849 168.84 696.063 171 701.5 171V130Z" fill="#AEDCFE"/>
<path d="M37 41C33.287 41 29.726 42.3696 27.1005 44.8076C24.475 47.2456 23 50.5522 23 54C23 57.4478 24.475 60.7544 27.1005 63.1924C29.726 65.6304 33.287 67 37 67V41Z" fill="#C8FEC7"/>
<path d="M203.236 132.041C198.155 132.03 193.277 133.894 189.677 137.223C186.077 140.552 184.048 145.073 184.038 149.792C184.028 154.51 186.037 159.04 189.623 162.384C193.209 165.728 198.078 167.613 203.16 167.624L203.236 132.041Z" fill="#C8FEC7"/>
<path d="M474.236 132.041C469.155 132.03 464.277 133.894 460.677 137.223C457.077 140.552 455.048 145.073 455.038 149.792C455.028 154.51 457.037 159.04 460.623 162.384C464.209 165.728 469.078 167.613 474.16 167.624L474.236 132.041Z" fill="#C8FEC7"/>
<path d="M395.236 132.041C390.155 132.03 385.277 133.894 381.677 137.223C378.077 140.552 376.048 145.073 376.038 149.792C376.028 154.51 378.037 159.04 381.623 162.384C385.209 165.728 390.078 167.613 395.16 167.624L395.236 132.041Z" fill="#BE9FF6"/>
<path d="M345.898 125.41C339.585 125.396 333.525 127.712 329.053 131.847C324.58 135.983 322.06 141.599 322.047 147.461C322.035 153.323 324.531 158.95 328.986 163.105C333.44 167.26 339.49 169.601 345.803 169.615L345.898 125.41Z" fill="#C8FEC7"/>
<path d="M312.702 98.0401C307.762 98.0295 303.02 99.8418 299.52 103.078C296.019 106.315 294.047 110.71 294.037 115.298C294.027 119.885 295.98 124.289 299.467 127.541C302.953 130.792 307.688 132.625 312.628 132.635L312.702 98.0401Z" fill="#BE9FF6"/>
<path d="M439.872 85.019C437.528 85.0139 435.279 85.8736 433.618 87.4088C431.958 88.944 431.022 91.0289 431.018 93.2051C431.013 95.3812 431.939 97.4702 433.593 99.0125C435.247 100.555 437.493 101.424 439.836 101.429L439.872 85.019Z" fill="#BE9FF6"/>
<path d="M555.91 99.0233C553.028 99.0171 550.262 100.074 548.22 101.962C546.178 103.85 545.027 106.414 545.022 109.09C545.016 111.766 546.155 114.335 548.189 116.232C550.223 118.129 552.984 119.198 555.866 119.204L555.91 99.0233Z" fill="#BE9FF6"/>
<path d="M682.91 34.0233C680.028 34.0171 677.262 35.0743 675.22 36.9622C673.178 38.8501 672.027 41.4141 672.022 44.0902C672.016 46.7663 673.155 49.3352 675.189 51.2319C677.223 53.1286 679.984 54.1976 682.866 54.2038L682.91 34.0233Z" fill="#BE9FF6"/>
<path d="M549.702 63.0399C544.762 63.0293 540.02 64.8415 536.52 68.078C533.019 71.3144 531.047 75.7098 531.037 80.2974C531.027 84.885 532.98 89.2889 536.467 92.5404C539.953 95.7918 544.688 97.6244 549.628 97.635L549.702 63.0399Z" fill="#BE9FF6"/>
<path d="M291.236 21.0413C286.155 21.0304 281.277 22.8944 277.677 26.2232C274.077 29.552 272.048 34.073 272.038 38.7916C272.028 43.5101 274.037 48.0398 277.623 51.3841C281.209 54.7283 286.078 56.6133 291.16 56.6242L291.236 21.0413Z" fill="#C8FEC7"/>
<path d="M75 75C80.8348 75 86.4305 72.6821 90.5563 68.5563C94.6821 64.4305 97 58.8348 97 53C97 47.1652 94.6821 41.5695 90.5563 37.4437C86.4305 33.3179 80.8348 31 75 31V75Z" fill="#BE9FF6"/>
<path d="M48 111C53.8348 111 59.4305 108.682 63.5563 104.556C67.6821 100.431 70 94.8348 70 89C70 83.1652 67.6821 77.5695 63.5563 73.4437C59.4305 69.3179 53.8348 67 48 67V111Z" fill="#AEDCFE"/>
<path d="M199 110C203.774 110 208.352 108.104 211.728 104.728C215.104 101.352 217 96.7739 217 92C217 87.2261 215.104 82.6477 211.728 79.2721C208.352 75.8964 203.774 74 199 74V110Z" fill="#C8FEC7"/>
<path d="M421.5 89C427.733 89 433.71 86.5241 438.117 82.117C442.524 77.7099 445 71.7326 445 65.5C445 59.2674 442.524 53.2901 438.117 48.883C433.71 44.4759 427.733 42 421.5 42V89Z" fill="#C8FEC7"/>
<path d="M526.5 142C532.733 142 538.71 139.524 543.117 135.117C547.524 130.71 550 124.733 550 118.5C550 112.267 547.524 106.29 543.117 101.883C538.71 97.4759 532.733 95 526.5 95V142Z" fill="#C8FEC7"/>
<path d="M545.5 61C551.733 61 557.71 58.5241 562.117 54.117C566.524 49.7099 569 43.7326 569 37.5C569 31.2674 566.524 25.2901 562.117 20.883C557.71 16.4759 551.733 14 545.5 14V61Z" fill="#C8FEC7"/>
<path d="M623.5 172C629.733 172 635.71 169.524 640.117 165.117C644.524 160.71 647 154.733 647 148.5C647 142.267 644.524 136.29 640.117 131.883C635.71 127.476 629.733 125 623.5 125V172Z" fill="#C8FEC7"/>
<path d="M590.5 116C596.733 116 602.71 113.524 607.117 109.117C611.524 104.71 614 98.7326 614 92.5C614 86.2674 611.524 80.2901 607.117 75.883C602.71 71.4759 596.733 69 590.5 69V116Z" fill="#C8FEC7"/>
<path d="M688.5 102C694.733 102 700.71 99.5241 705.117 95.117C709.524 90.7099 712 84.7326 712 78.5C712 72.2674 709.524 66.2901 705.117 61.883C700.71 57.4759 694.733 55 688.5 55V102Z" fill="#C8FEC7"/>
<path d="M701.5 39C707.733 39 713.71 36.5241 718.117 32.117C722.524 27.7099 725 21.7326 725 15.5C725 9.26741 722.524 3.29009 718.117 -1.11701C713.71 -5.52411 707.733 -8 701.5 -8V39Z" fill="#C8FEC7"/>
<path d="M744.5 162C750.733 162 756.71 159.524 761.117 155.117C765.524 150.71 768 144.733 768 138.5C768 132.267 765.524 126.29 761.117 121.883C756.71 117.476 750.733 115 744.5 115V162Z" fill="#C8FEC7"/>
<path d="M233 84C238.835 84 244.431 81.6821 248.556 77.5563C252.682 73.4305 255 67.8348 255 62C255 56.1652 252.682 50.5695 248.556 46.4437C244.431 42.3179 238.835 40 233 40V84Z" fill="#AEDCFE"/>
<path d="M110 111C115.835 111 121.431 108.682 125.556 104.556C129.682 100.431 132 94.8348 132 89C132 83.1652 129.682 77.5695 125.556 73.4437C121.431 69.3179 115.835 67 110 67V111Z" fill="#C8FEC7"/>
<path d="M159 160C165.63 160 171.989 157.366 176.678 152.678C181.366 147.989 184 141.63 184 135C184 128.37 181.366 122.011 176.678 117.322C171.989 112.634 165.63 110 159 110V160Z" fill="#AEDCFE"/>
<path d="M293 175C299.63 175 305.989 172.366 310.678 167.678C315.366 162.989 318 156.63 318 150C318 143.37 315.366 137.011 310.678 132.322C305.989 127.634 299.63 125 293 125V175Z" fill="#AEDCFE"/>
<path d="M435 152C441.63 152 447.989 149.366 452.678 144.678C457.366 139.989 460 133.63 460 127C460 120.37 457.366 114.011 452.678 109.322C447.989 104.634 441.63 102 435 102V152Z" fill="#AEDCFE"/>
<path d="M516 21C522.63 21 528.989 18.3661 533.678 13.6777C538.366 8.98926 541 2.63041 541 -4C541 -10.6304 538.366 -16.9893 533.678 -21.6777C528.989 -26.3661 522.63 -29 516 -29V21Z" fill="#AEDCFE"/>
<path d="M575 69C581.63 69 587.989 66.3661 592.678 61.6777C597.366 56.9893 600 50.6304 600 44C600 37.3696 597.366 31.0107 592.678 26.3223C587.989 21.6339 581.63 19 575 19V69Z" fill="#AEDCFE"/>
<path d="M808 165C814.63 165 820.989 162.366 825.678 157.678C830.366 152.989 833 146.63 833 140C833 133.37 830.366 127.011 825.678 122.322C820.989 117.634 814.63 115 808 115V165Z" fill="#AEDCFE"/>
<path d="M571 168C577.63 168 583.989 165.366 588.678 160.678C593.366 155.989 596 149.63 596 143C596 136.37 593.366 130.011 588.678 125.322C583.989 120.634 577.63 118 571 118V168Z" fill="#AEDCFE"/>
<path d="M480 126C486.63 126 492.989 123.366 497.678 118.678C502.366 113.989 505 107.63 505 101C505 94.3696 502.366 88.0107 497.678 83.3223C492.989 78.6339 486.63 76 480 76V126Z" fill="#AEDCFE"/>
<path d="M514.5 89C518.876 89 523.073 87.2616 526.167 84.1673C529.262 81.0729 531 76.8761 531 72.5C531 68.1239 529.262 63.9271 526.167 60.8327C523.073 57.7384 518.876 56 514.5 56V89Z" fill="#AEDCFE"/>
<path d="M683 132C686.713 132 690.274 130.525 692.899 127.899C695.525 125.274 697 121.713 697 118C697 114.287 695.525 110.726 692.899 108.101C690.274 105.475 686.713 104 683 104V132Z" fill="#AEDCFE"/>
<path d="M720.5 69C724.876 69 729.073 67.2616 732.167 64.1673C735.262 61.0729 737 56.8761 737 52.5C737 48.1239 735.262 43.9271 732.167 40.8327C729.073 37.7384 724.876 36 720.5 36V69Z" fill="#AEDCFE"/>
<path d="M314.5 91C319.937 91 325.151 88.8402 328.996 84.9957C332.84 81.1512 335 75.9369 335 70.5C335 65.0631 332.84 59.8488 328.996 56.0043C325.151 52.1598 319.937 50 314.5 50V91Z" fill="#AEDCFE"/>
<path d="M351 122C355.774 122 360.352 120.104 363.728 116.728C367.104 113.352 369 108.774 369 104C369 99.2261 367.104 94.6477 363.728 91.2721C360.352 87.8964 355.774 86 351 86V122Z" fill="#AEDCFE"/>
<path d="M366 73C372.896 73 379.509 70.2607 384.385 65.3848C389.261 60.5088 392 53.8956 392 47C392 40.1044 389.261 33.4912 384.385 28.6152C379.509 23.7393 372.896 21 366 21V73Z" fill="#AEDCFE"/>
<path d="M652.5 127C657.937 127 663.151 124.84 666.996 120.996C670.84 117.151 673 111.937 673 106.5C673 101.063 670.84 95.8488 666.996 92.0043C663.151 88.1598 657.937 86 652.5 86V127Z" fill="#AEDCFE"/>
<path d="M746.5 71C751.937 71 757.151 68.8402 760.996 64.9957C764.84 61.1512 767 55.9369 767 50.5C767 45.0631 764.84 39.8488 760.996 36.0043C757.151 32.1598 751.937 30 746.5 30V71Z" fill="#AEDCFE"/>
<path d="M701.5 171C706.937 171 712.151 168.84 715.996 164.996C719.84 161.151 722 155.937 722 150.5C722 145.063 719.84 139.849 715.996 136.004C712.151 132.16 706.937 130 701.5 130V171Z" fill="#AEDCFE"/>
<path d="M37 67C40.4478 67 43.7544 65.6304 46.1924 63.1924C48.6304 60.7544 50 57.4478 50 54C50 50.5522 48.6304 47.2456 46.1924 44.8076C43.7544 42.3696 40.4478 41 37 41V67Z" fill="#C8FEC7"/>
<path d="M203.16 167.624C207.879 167.634 212.408 165.77 215.752 162.44C219.095 159.111 220.98 154.59 220.99 149.871C221 145.152 219.135 140.623 215.806 137.279C212.476 133.936 207.955 132.051 203.236 132.041L203.16 167.624Z" fill="#C8FEC7"/>
<path d="M395.16 167.624C399.879 167.634 404.408 165.77 407.752 162.44C411.095 159.111 412.98 154.59 412.99 149.871C413 145.152 411.135 140.623 407.806 137.279C404.476 133.936 399.955 132.051 395.236 132.041L395.16 167.624Z" fill="#BE9FF6"/>
<path d="M345.803 169.615C351.665 169.627 357.291 167.311 361.445 163.175C365.599 159.039 367.94 153.422 367.953 147.56C367.965 141.698 365.649 136.071 361.512 131.917C357.376 127.763 351.76 125.423 345.898 125.41L345.803 169.615Z" fill="#C8FEC7"/>
<path d="M312.628 132.635C317.216 132.645 321.619 130.832 324.87 127.595C328.121 124.358 329.953 119.963 329.963 115.375C329.973 110.787 328.16 106.384 324.923 103.133C321.686 99.882 317.29 98.0501 312.702 98.0402L312.628 132.635Z" fill="#BE9FF6"/>
<path d="M439.836 101.429C442.012 101.434 444.101 100.574 445.643 99.0384C447.185 97.503 448.054 95.4178 448.059 93.2417C448.064 91.0656 447.204 88.9767 445.668 87.4347C444.133 85.8926 442.048 85.0237 439.872 85.019L439.836 101.429Z" fill="#BE9FF6"/>
<path d="M555.866 119.204C558.543 119.209 561.111 118.152 563.008 116.264C564.904 114.375 565.973 111.811 565.978 109.135C565.984 106.459 564.927 103.89 563.038 101.994C561.15 100.098 558.586 99.029 555.91 99.0232L555.866 119.204Z" fill="#BE9FF6"/>
<path d="M682.866 54.2037C685.543 54.2094 688.111 53.1519 690.008 51.2637C691.904 49.3755 692.973 46.8112 692.978 44.1352C692.984 41.4591 691.927 38.8903 690.038 36.9939C688.15 35.0976 685.586 34.029 682.91 34.0232L682.866 54.2037Z" fill="#BE9FF6"/>
<path d="M549.628 97.6351C554.216 97.6449 558.619 95.832 561.87 92.595C565.121 89.3581 566.953 84.9623 566.963 80.3747C566.973 75.7871 565.16 71.3835 561.923 68.1326C558.686 64.8817 554.29 63.0498 549.702 63.04L549.628 97.6351Z" fill="#BE9FF6"/>
<path d="M291.16 56.6242C295.879 56.6344 300.408 54.7697 303.752 51.4403C307.095 48.1109 308.98 43.5896 308.99 38.871C309 34.1524 307.135 29.6231 303.806 26.2794C300.476 22.9357 295.955 21.0515 291.236 21.0414L291.16 56.6242Z" fill="#C8FEC7"/>
<path d="M86 20C86 26.3652 88.4232 32.4697 92.7365 36.9706C97.0499 41.4714 102.9 44 109 44C115.1 44 120.95 41.4714 125.263 36.9706C129.577 32.4697 132 26.3652 132 20L86 20Z" fill="#C8FEC7"/>
<path d="M23 16C23 22.3652 25.4759 28.4697 29.883 32.9706C34.2901 37.4714 40.2674 40 46.5 40C52.7326 40 58.7099 37.4714 63.117 32.9706C67.5241 28.4697 70 22.3652 70 16L23 16Z" fill="#AEDCFE"/>
<path d="M107 49C107 52.9782 108.528 56.7936 111.247 59.6066C113.966 62.4196 117.654 64 121.5 64C125.346 64 129.034 62.4196 131.753 59.6066C134.472 56.7936 136 52.9782 136 49H107Z" fill="#AEDCFE"/>
</g>
</svg>
